<svg width="512" height="512" viewBox="0 0 512 512" fill="none" xmlns="http://www.w3.org/2000/svg">
<g clip-path="url(#clip0_2_2)">
<path opacity="0.913" fill-rule="evenodd" clip-rule="evenodd" d="M187.763 0C225.31 1.42853 246.36 20.6308 250.913 57.6067C252.052 193.966 251.665 330.302 249.754 466.614C237.556 503.504 212.258 517.906 173.858 509.819C157.343 504.147 145.176 493.587 137.358 478.135C102.334 481.465 76.8421 467.639 60.8831 436.659C56.246 424.326 54.3148 411.653 55.0895 398.638C18.5271 384.303 5.39506 358.189 15.6932 320.293C17.8613 315.015 20.7581 310.214 24.3835 305.891C1.45728 285.569 -5.30198 260.798 4.10599 231.579C6.60986 225.827 9.69981 220.45 13.3757 215.449C17.8944 210.956 22.3362 206.539 26.701 202.199C14.5435 166.645 25.1651 139.953 58.5657 122.126C53.6568 86.7533 67.3683 61.5983 99.7001 46.6614C111.514 43.3293 123.487 41.9852 135.62 42.6289C144.325 17.8376 161.705 3.62795 187.763 0ZM188.921 14.9777C210.38 15.3657 225.249 25.3509 233.532 44.9332C234.627 49.0971 235.4 53.3217 235.849 57.6067C236.429 84.1034 236.622 110.602 236.429 137.104C214.41 137.296 192.394 137.104 170.382 136.528C160.775 133.505 153.629 127.552 148.946 118.67C147.571 112.336 145.833 106.192 143.731 100.236C135.895 96.9105 131.646 99.4072 130.985 107.724C133.317 130.776 145.676 145.37 168.064 151.506C190.849 152.082 213.638 152.274 236.429 152.082C236.429 177.812 236.429 203.544 236.429 229.275C189.639 228.725 142.904 229.301 96.224 231.003C74.1461 239.381 63.5246 255.32 64.3593 278.816C67.3249 282.099 70.9942 283.06 75.3671 281.697C76.7587 280.656 77.7251 279.313 78.2639 277.664C79.185 260.997 87.4896 250.052 103.176 244.828C147.592 244.252 192.009 244.06 236.429 244.252C236.622 314.534 236.429 384.814 235.849 455.093C233.898 475.461 223.276 489.094 203.985 495.993C185.889 499.981 170.633 495.18 158.215 481.592C156.632 479.437 155.28 477.133 154.16 474.679C163.655 469.652 172.346 463.508 180.231 456.245C183.695 446.817 180.412 442.784 170.382 444.147C147.946 466.491 122.84 469.947 95.0653 454.517C68.5223 432.801 63.3081 406.878 79.4226 376.748C92.5636 359.364 110.137 350.34 132.144 349.672C135.55 345.043 135.163 340.818 130.985 336.999C106.876 335.257 86.9855 343.513 71.3116 361.77C66.2554 368.762 61.8137 376.06 57.9863 383.66C29.8438 371.083 21.1534 350.344 31.9152 321.445C33.6533 318.949 35.3913 316.453 37.1294 313.956C65.8137 323.385 90.7259 317.432 111.867 296.098C116.893 290.137 120.563 283.416 122.874 275.936C121.93 268.977 118.068 266.673 111.287 269.023C106.44 278.071 100.261 286.136 92.7478 293.218C67.7706 308.631 45.1757 305.751 24.9629 284.577C11.8361 264.947 11.8361 245.361 24.9629 225.818C28.108 222.303 31.5841 219.23 35.3913 216.601C41.8899 222.869 49.4215 227.477 57.9863 230.427C64.465 229.101 66.5893 225.261 64.3593 218.905C40.4427 205.552 32.3316 185.966 40.0262 160.147C44.6969 149.166 52.6147 141.485 63.7799 137.104C67.0499 141.284 70.3329 145.509 73.629 149.777C77.9174 154.396 82.9393 157.853 88.6923 160.147C96.2425 158.622 98.1741 154.399 94.4859 147.473C70.8551 128.067 66.6066 105.024 81.74 78.3451C104.077 54.0054 128.603 51.5092 155.319 70.8562C166.172 82.2842 171.966 95.9186 172.699 111.757C179.665 115.927 184.3 114.198 186.604 106.572C185.049 80.427 172.69 61.2245 149.525 48.9657C155.928 29.8552 169.06 18.526 188.921 14.9777Z" fill="currentColor"/>
<path opacity="0.918" fill-rule="evenodd" clip-rule="evenodd" d="M311.84 0.024262C336.589 -0.598548 345.977 10.7694 340.006 34.1283C331.825 45.3928 320.839 49.1169 307.045 45.3003C297.657 54.5123 288.268 63.7243 278.879 72.9363C278.08 99.1999 278.08 125.465 278.879 151.728C288.668 161.333 298.455 170.936 308.244 180.54C327.547 175.899 339.133 183.151 343.002 202.296C339.796 220.548 329.009 227.8 310.641 224.052C300.882 220.008 295.689 212.756 295.06 202.296C295.207 198.78 296.007 195.449 297.457 192.3C286.071 181.128 274.684 169.956 263.298 158.784C262.498 128.208 262.498 97.6323 263.298 67.0563C274.484 56.0803 285.671 45.1043 296.858 34.1283C292.03 18.5203 297.024 7.15224 311.84 0.024262ZM315.435 15.3123C324.281 14.7748 327.676 18.6948 325.623 27.0723C319.847 32.2691 315.053 31.4851 311.24 24.7203C310.973 20.9281 312.371 17.7921 315.435 15.3123ZM316.634 194.064C324.447 194.476 327.444 198.396 325.623 205.824C322.59 210.178 318.794 211.158 314.237 208.764C309.174 202.954 309.974 198.053 316.634 194.064Z" fill="currentColor"/>
<path opacity="0.92" fill-rule="evenodd" clip-rule="evenodd" d="M412.519 37.6563C433.504 37.6623 442.892 47.8543 440.685 68.2323C436.822 78.6858 429.232 84.1742 417.913 84.6963C413.684 83.7978 409.489 83.2098 405.328 82.9323C393.342 93.1247 381.356 103.316 369.371 113.508C358.96 113.706 348.573 114.294 338.208 115.272C331.93 127.365 321.942 131.873 308.244 128.796C294.369 122.471 289.774 112.083 294.461 97.6323C302.951 83.3592 314.737 80.0264 329.818 87.6363C334.374 90.7104 337.17 94.8264 338.208 99.9843C345.809 100.18 353.4 99.9843 360.981 99.3963C371.818 89.9354 383.006 80.9202 394.541 72.3483C390.66 55.6904 396.653 44.1264 412.519 37.6563ZM416.115 52.9443C424.305 54.1266 426.901 58.4387 423.905 65.8803C417.124 70.8935 412.53 69.3254 410.122 61.1763C410.738 57.4398 412.736 54.6958 416.115 52.9443ZM314.237 98.8083C324.3 100.71 326.298 105.609 320.23 113.508C311.504 115.53 307.708 112.197 308.843 103.512C310.518 101.666 312.316 100.097 314.237 98.8083Z" fill="currentColor"/>
<path opacity="0.91" fill-rule="evenodd" clip-rule="evenodd" d="M435.292 91.7523C449.748 89.5273 459.536 95.0145 464.657 108.216C466.921 125.785 459.13 135.584 441.285 137.616C437.641 137.714 434.246 136.93 431.097 135.264C410.721 155.256 390.346 175.248 369.97 195.24C368.973 207.802 369.172 220.347 370.569 232.872C382.513 238.675 387.108 248.083 384.353 261.096C378.192 275.933 367.206 280.832 351.392 275.796C338.089 267.602 334.694 256.43 341.205 242.28C344.396 238.457 348.192 235.322 352.591 232.872C353.589 218.384 354.189 203.88 354.389 189.36C375.529 167.442 397.103 145.881 419.111 124.68C415.294 109.049 420.687 98.0733 435.292 91.7523ZM438.888 107.04C447.073 106.25 450.469 109.778 449.075 117.624C444.164 123.862 439.369 123.862 434.693 117.624C433.47 112.983 434.869 109.455 438.888 107.04ZM358.584 246.984C368.586 247.209 371.382 251.717 366.974 260.508C357.925 264.018 353.73 261.078 354.389 251.688C355.216 249.513 356.613 247.944 358.584 246.984Z" fill="currentColor"/>
<path opacity="0.896" fill-rule="evenodd" clip-rule="evenodd" d="M117.081 142.865C120.733 142.241 123.63 143.393 125.771 146.321C126.495 161.021 133.255 171.966 146.049 179.157C152.368 180.728 158.548 182.456 164.588 184.341C168.047 191.806 165.536 196.031 157.057 197.015C127.348 192.833 112.671 175.935 113.025 146.321C114.352 145.012 115.704 143.86 117.081 142.865Z" fill="currentColor"/>
<path opacity="0.912" fill-rule="evenodd" clip-rule="evenodd" d="M468.852 152.904C492.351 151.456 502.139 162.04 498.217 184.656C491.158 197.291 480.571 201.407 466.455 197.004C460.15 194.056 455.755 189.352 453.27 182.892C450.474 182.108 447.677 182.108 444.88 182.892C434.693 192.888 424.505 202.884 414.317 212.88C413.518 229.736 413.518 246.593 414.317 263.448C429.279 271.818 432.874 283.578 425.104 298.728C417.228 308.031 407.44 310.578 395.739 306.372C384.214 300.009 380.019 290.405 383.154 277.56C385.512 270.738 390.107 266.034 396.938 263.448C397.936 244.644 398.535 225.828 398.736 207C410.886 193.903 423.47 181.162 436.49 168.78C442.347 167.341 448.339 166.557 454.469 166.428C457.559 160.063 462.353 155.554 468.852 152.904ZM472.447 168.192C480.244 167.038 484.04 170.174 483.834 177.6C479.544 184.954 474.75 185.345 469.451 178.776C468.165 174.543 469.163 171.015 472.447 168.192ZM402.931 277.56C409.68 277.324 413.075 280.46 413.118 286.968C409.405 293.812 404.611 294.596 398.736 289.32C397.035 284.125 398.434 280.205 402.931 277.56Z" fill="currentColor"/>
<path opacity="0.892" fill-rule="evenodd" clip-rule="evenodd" d="M179.652 182.037C193.948 181.845 208.238 182.037 222.524 182.613C227.337 187.681 226.952 192.29 221.365 196.439C207.847 197.207 194.329 197.207 180.81 196.439C175.16 192.096 174.773 187.295 179.652 182.037Z" fill="currentColor"/>
<path opacity="0.914" fill-rule="evenodd" clip-rule="evenodd" d="M479.639 215.232C498.105 212.204 508.892 219.652 512 237.576C511.356 247.492 506.562 254.548 497.617 258.744C496.619 293.626 496.02 328.514 495.819 363.409C495.42 364.585 495.02 365.761 494.621 366.937C476.642 384.577 458.664 402.217 440.685 419.857C443.597 440.913 434.208 451.3 412.519 451.021C394.442 443.683 389.847 431.335 398.736 413.977C401.803 410.412 405.599 407.864 410.122 406.333C417.138 405.418 423.929 405.809 430.498 407.509C447.077 391.241 463.658 374.972 480.238 358.705C481.037 325.776 481.037 292.848 480.238 259.92C470.333 255.991 464.94 248.74 464.057 238.164C464.768 227.491 469.962 219.847 479.639 215.232ZM484.433 230.52C490.793 229.51 494.789 232.057 496.419 238.164C493.262 246.239 488.268 247.611 481.437 242.28C479.135 237.499 480.134 233.579 484.433 230.52ZM413.718 421.033C422.44 419.597 426.236 423.125 425.104 431.617C420.31 437.888 415.516 437.888 410.721 431.617C409.68 427.509 410.678 423.981 413.718 421.033Z" fill="currentColor"/>
<path opacity="0.909" fill-rule="evenodd" clip-rule="evenodd" d="M279.478 226.992C297.057 225.239 307.044 232.883 309.443 249.924C309.507 253.303 308.709 256.439 307.045 259.332C330.217 282.068 353.39 304.805 376.562 327.541C386.142 328.129 395.731 328.324 405.328 328.129C409.836 316.301 418.626 311.402 431.696 313.428C443.645 316.146 450.037 323.594 450.873 335.773C447.521 355.652 435.934 362.708 416.115 356.941C410.86 353.745 406.864 349.433 404.129 344.005C392.943 343.613 381.756 343.22 370.569 342.829C345.234 319.146 320.263 295.038 295.659 270.504C271.839 275.756 261.052 266.348 263.298 242.28C266.225 234.505 271.618 229.409 279.478 226.992ZM281.876 242.28C289.282 241.525 293.077 244.662 293.262 251.688C289.549 258.532 284.755 259.316 278.879 254.04C277.514 249.429 278.514 245.51 281.876 242.28ZM424.505 328.129C430.553 327.791 434.148 330.535 435.292 336.361C433.385 342.363 429.39 344.518 423.306 342.829C416.821 337.411 417.22 332.511 424.505 328.129Z" fill="currentColor"/>
<path opacity="0.902" fill-rule="evenodd" clip-rule="evenodd" d="M168.064 263.839C196.279 265.589 211.729 280.374 214.413 308.196C212.734 334.406 198.829 349.192 172.699 352.553C163.902 352.941 161.005 349.1 164.009 341.031C165.055 339.648 166.406 338.687 168.064 338.151C187.274 337.099 197.702 327.115 199.35 308.196C196.636 288.991 185.435 279.005 165.747 278.24C160.853 272.547 161.625 267.747 168.064 263.839Z" fill="currentColor"/>
<path opacity="0.91" fill-rule="evenodd" clip-rule="evenodd" d="M285.471 285.792C304.211 289.111 312.002 300.088 308.843 318.72C330.851 339.921 352.426 361.482 373.566 383.4C373.766 397.137 374.365 410.858 375.364 424.56C392.06 433.564 395.455 446.107 385.551 462.193C375.317 470.414 364.331 471.394 352.591 465.133C344.27 456.949 342.072 447.344 345.999 436.32C348.431 431.386 352.227 427.858 357.385 425.736C358.783 413.604 358.982 401.451 357.984 389.28C338.208 369.876 318.432 350.472 298.656 331.068C292.416 332.54 286.023 332.932 279.478 332.244C268.166 328.685 262.174 321.041 261.5 309.312C263.607 295.485 271.597 287.645 285.471 285.792ZM281.876 302.256C289.282 301.501 293.077 304.638 293.262 311.664C289.549 318.508 284.755 319.292 278.879 314.016C277.514 309.405 278.514 305.486 281.876 302.256ZM364.577 438.672C374.217 439.284 377.013 443.793 372.967 452.197C363.917 455.706 359.722 452.766 360.382 443.376C361.209 441.201 362.606 439.632 364.577 438.672Z" fill="currentColor"/>
<path opacity="0.912" fill-rule="evenodd" clip-rule="evenodd" d="M279.478 344.593C299.782 343.542 309.571 352.95 308.843 372.817C306.422 381.265 301.029 386.753 292.663 389.281C292.465 392.83 292.665 396.358 293.262 399.865C306.047 412.409 318.831 424.952 331.616 437.497C331.817 447.32 332.417 457.12 333.414 466.897C347.347 474.251 351.542 485.228 345.999 499.825C338.207 511.375 327.62 514.708 314.237 509.821C300.697 500.927 297.7 489.363 305.248 475.129C308.158 471.485 311.753 468.742 316.035 466.897C316.834 459.449 316.834 452 316.035 444.553C303.65 432.401 291.264 420.248 278.879 408.097C277.472 401.923 276.673 395.65 276.482 389.281C264.616 382.841 260.221 373.041 263.298 359.881C266.225 352.105 271.618 347.009 279.478 344.593ZM283.074 359.881C290.394 359.81 293.791 363.338 293.262 370.465C288.929 376.254 284.135 376.646 278.879 371.641C277.178 366.445 278.577 362.525 283.074 359.881ZM321.428 481.009C327.649 480.329 331.644 482.877 333.414 488.653C331.789 494.962 327.793 497.314 321.428 495.709C315.162 490.821 315.162 485.922 321.428 481.009Z" fill="currentColor"/>
<path opacity="0.897" fill-rule="evenodd" clip-rule="evenodd" d="M157.636 384.813C165.447 386.078 167.957 390.301 165.168 397.486C156.665 399.498 148.362 402.378 140.255 406.127C130.908 414.156 126.079 424.334 125.771 436.659C121.116 440.045 116.867 439.66 113.025 435.506C112.884 405.501 127.755 388.603 157.636 384.813Z" fill="currentColor"/>
<path opacity="0.9" fill-rule="evenodd" clip-rule="evenodd" d="M181.969 384.813C194.721 384.62 207.467 384.813 220.207 385.389C226.872 389.054 227.644 393.662 222.524 399.214C208.234 399.983 193.942 399.983 179.652 399.214C174.602 393.435 175.374 388.634 181.969 384.813Z" fill="currentColor"/>
</g>
<defs>
<clipPath id="clip0_2_2">
<rect width="512" height="512" fill="white"/>
</clipPath>
</defs>
</svg>
